<svg xmlns="http://www.w3.org/2000/svg" viewBox="0 0 16 16" width="16" height="16" fill="none"><path fill="#24292f" d="M13.75 10c0-2.389-.983-4.131-1.696-5.08-.19.437-.74 1.33-2.054 1.33-.765 0-1.3-.334-1.643-.712-.306-.338-.455-.706-.513-.902l-.01-.037c-.097-.36-.176-.738-.253-1.079-.079-.35-.159-.676-.262-.98-.108-.318-.24-.6-.412-.844-.865 1.82-2.002 3.05-2.899 4.151C2.98 7.111 2.25 8.22 2.25 10c0 1.545.923 2.955 2.374 3.831-.074-.277-.115-.565-.123-.855l-.001-.104c0-.957.522-1.784 1.107-2.472.58-.685 1.352-1.371 1.952-1.968l.024-.022c.245-.22.622-.213.858.022.613.61 1.372 1.31 1.956 2.012.575.691 1.103 1.52 1.103 2.428l-.001.104c-.008.29-.049.578-.123.855 1.45-.876 2.374-2.286 2.374-3.831M15 10c0 2.817-2.241 5.046-5.036 5.756l-.133.032c-.297.07-.601-.085-.72-.366-.118-.28-.016-.607.242-.77l.053-.035c.528-.362.824-.967.843-1.674l.001-.07c0-.443-.271-.977-.814-1.63-.416-.5-.92-.99-1.438-1.494-.52.5-1.019.965-1.438 1.46-.533.627-.81 1.164-.81 1.663l.001.071c.02.73.335 1.353.896 1.71.258.163.36.488.241.77-.114.272-.403.425-.691.371l-.028-.006C3.313 15.116 1 12.862 1 10c0-2.22.957-3.611 2.039-4.941C4.119 3.73 5.305 2.473 6.104.4l.014-.033c.073-.16.21-.284.38-.338.181-.057.378-.03.536.076l.074.05c.756.533 1.148 1.26 1.394 1.983.126.37.218.75.299 1.107.083.368.152.703.24 1.03l.008.026c.025.074.096.245.235.398.142.157.356.301.716.301.34 0 .537-.111.66-.222.137-.123.216-.277.26-.385l.012-.036c.03-.094.063-.263.101-.478.018-.1.04-.221.063-.312.009-.035.03-.123.075-.208.013-.026.082-.165.242-.263.097-.06.24-.109.408-.088.142.017.248.078.319.135l.028.023.049.046C12.6 3.575 15 5.996 15 10"/></svg>
